<?xml version="1.0" encoding="UTF-8"?>
<svg viewBox="0 0 640 480" xmlns="http://www.w3.org/2000/svg">
 <g stroke="#000" stroke-linecap="round" stroke-linejoin="round">
  <path d="m279.8 375.1l-6.752-0.043-6.598-0.377-6.543-0.723-6.412-1.021-6.383-1.327-6.188-1.638-6.119-1.921-5.926-2.233-5.818-2.49-5.672-2.725-5.503-2.997-5.37-3.294-5.124-3.519-5.04-3.739-4.769-4.001-4.608-4.173-4.361-4.396-4.176-4.607-3.928-4.831-3.73-4.978-3.481-5.202-3.182-5.34-2.981-5.487-2.696-5.686-2.396-5.823-2.156-5.947-1.818-6.059-1.556-6.222-1.216-6.333-0.901-6.408-0.6-6.546-0.246-6.596 0.108-6.645 0.403-6.515 0.748-6.463 1.068-6.372 1.425-6.256 1.683-6.151 1.978-6.021 2.273-5.89 2.57-5.761 2.801-5.615 3.137-5.462 3.304-5.3 3.616-5.109 3.824-4.925 4.055-4.779 4.24-4.557 4.511-4.387 4.709-4.101 4.878-3.942 5.102-3.694 5.26-3.433 5.445-3.21 5.566-2.973 5.763-2.685 5.924-2.424 6.02-2.148 6.193-1.822 6.29-1.546 6.387-1.269 6.561-0.944 6.57-0.614 6.744-0.289 6.69 0.057 6.636 0.402 6.529 0.661 6.45 1.044 6.32 1.342 6.25 1.624 6.057 1.935 5.95 2.193 5.819 2.491 5.686 2.787 5.502 2.999 5.333 3.27 5.185 3.504 4.978 3.752 4.793 3.963 4.584 4.211 4.4 4.421 4.176 4.608 3.953 4.792 3.705 5.016 3.467 5.14 3.22 5.363 2.957 5.526 2.682 5.623 2.435 5.847 2.117 5.923 1.833 6.122 1.516 6.198 1.28 6.318 0.9 6.408 0.561 6.522 0.261 6.659-0.083 6.606-0.428 6.554-0.787 6.439-1.067 6.373-1.362 6.24-1.683 6.152-2.042 6.036-2.273 5.889-2.506 5.746-2.865 5.63-3.073 5.447-3.344 5.278-3.577 5.131-3.848 4.964-4.03 4.74-4.304 4.572-4.487 4.348-4.694 4.164-4.893 3.879-5.062 3.719-5.285 3.471-5.445 3.21-5.604 2.949-5.764 2.685-5.86 2.409-6.058 2.124-6.181 1.885-6.289 1.546-6.426 1.245-6.497 0.929-6.633 0.629-6.682 0.274" fill="#fff" stroke-dasharray="null" stroke-width="3.688"/>
  <g fill-rule="evenodd" stroke-width=".445">
   <polyline points="281.77 326.77 281.29 328.15 281.11 334.21 279.86 337 275.28 338.64 273.31 342.5 273.4 348.13 276.98 350.85 282.37 354.1 288.28 359.9 292.14 364.42 295.2 364.59 295.5 367.92 294.01 371.26 294.56 373.56 294.89 373.82 308.14 371.2 320.92 367.36 333.22 362.21 347.74 354.2 360.6 344.79 360.82 340.98 363.02 335.31 367.03 329.64 369.29 326.28 365.96 323.77 364.18 323.52 359.88 325.4 351.49 327.31 344.62 328.22 338.97 321.67 330.04 321.84 323.43 320.7 315.76 317.48 309.66 318.88 301.29 319.02 298 320.59 291.86 318.44 287.8 320.3 284.3 323.15 282.34 325.17 279.19 324.51 274.35 324.09 270.24 321.1 269.47 319.05 270.68 315.47 270.92 312.42 268.09 310.39 263.77 309.21 258.94 309.28 258.38 306.99 259.88 304.14 260.6 299.28 257.75 297.56 253.96 298.88 252.46 301.46 249.69 302.28 246.09 301.06 241.2 297.09 240.66 291.99 241.34 287.38 245.37 281.94 250.7 280.82 254.02 281.27 256.3 282.53 258.59 282.22 261.15 280.89 265.46 281.3 269.54 283.04 272.42 287.32 274.73 290.6 277.27 289.8 276.47 285.73 274.88 282.42 275.61 278.32 277.59 274.96 282.61 271.32 285.63 268.71 285.85 263.87 287.84 258.44 290.32 254.8 292.1 254.28 293.11 251.72 295.58 247.84 297.86 246.77 300.16 248 301.92 245.95 305.72 243.83 308.48 242.25 307.43 239.7 303.62 240.3 301.84 239.78 301.57 237.02 299.01 236.29 296.49 238.35 293.71 239.7 293.42 238.44 296.19 235.56 300.73 233.19 303.55 232.89 307.36 231.26 308.58 228.45 307.26 224.87 303.41 220.35 296.46 215.1 292.37 214.66 290.08 214.21 287.76 211.19 280.88 208.25 278.33 209.05 278.36 213.4 278.68 219.02 280.5 221.02 279.01 223.33 278.33 228.21 277.6 232.58 274.76 230.05 272.72 226.77 272.41 222.95 269.08 221.47 263.96 220.28 262.13 217.52 262.58 211.62 265.6 206.96 270.38 202.3 274.67 199.13 276.64 196.57 274.34 194.06 271.3 195.14 267.98 194.15 267.42 190.82 267.12 187.77 264.84 187.81 264.15 192.19 262.1 194 260.36 192.75 260.26 187.39 258.95 183.87 256.12 182.37 253.81 178.82 250 179.15 247.73 181.25 250.55 183.72 251.12 186.78 254.45 189.28 253.98 192.62 243.68 184.63 238.31 179.87 235.46 175.82 235.43 172.23 234.34 167.44 232.01 166.42 227.71 166.5 225.92 167.55 223.63 167.09 221.1 167.36 220.13 169.94 219.11 171.75 214.25 170.83 211.24 172.9 209.51 176.53 208.52 179.6 205.72 179.15 202.88 176.9 203.94 180.21 208.31 182.17 213.15 183.89 217.25 186.12 218.83 190.41 219.14 195.26 217.46 202.44 215.24 209.88 214.8 215.78 214.86 219.12 215.67 222.66 212.65 226.29 209.9 230.96 207.19 237.12 206 244.56 205.11 255.04 206.18 258.85 208.3 265.97 209.88 271.55 212.26 278.18 215.33 281.45 217.91 282.41 215.32 279.39 213.99 275.58 213.2 271.24 212.39 267.44 214.4 266.9 215.46 269.94 217.31 277.32 221.24 285.18 222.32 289.49 221.31 292.32 223.68 295.86 228.27 298.07 235.22 304.35 239.53 306.06 246.2 308.22 253.84 311.42 257.71 313.93 261.3 317.15 264.18 323.49 269.8 325.69 273.4 326.91 277.46 326.35 281.77 326.77"/>
   <polyline points="267.43 297.91 270.48 296.56 275.33 297.74 280.94 299.45 285.25 299.87 289.11 301.62 288.11 303.66 283.53 304.27 279.71 301.5 275.08 299.27 267.43 297.91"/>
   <polyline points="290.39 302.85 290.19 304.9 293.5 306.15 296.56 306.59 301.88 305.74 298.29 303.72 298.54 302.47 296.47 301.72 290.39 302.85"/>
   <polyline points="309.35 228.17 311.15 229.94 314.5 232.68 318.07 235.67 319.12 237.95 313.5 238.07 309.93 234.06 308.62 231.24 309.35 228.17"/>
   <polyline points="285.43 207.41 282.12 206.43 278.04 205.73 282.08 202.61 282.27 198.24 280.44 195.48 275.59 194.03 272.27 192.55 268.92 188.24 271.68 185.63 275.53 186.62 280.38 189.11 284.99 191.55 286.82 195.61 288.36 196.84 292.18 198.58 294.54 202.64 292.51 204.95 291.82 208.31 288.78 208.86 285.43 207.41"/>
   <polyline points="303.97 203.49 308.57 206.46 310.63 207.48 315.2 206.1 320.74 204.2 315.38 202.27 313.58 199.46 314.03 194.6 314.43 186.19 317.46 183.32 317.41 178.74 312.53 173.96 307.39 170.22 301.23 168.27 296.14 165.04 290.26 164.9 285.71 166.5 283.44 169.36 280.88 169.66 280.65 167.62 277.07 167.66 272.78 169.54 273.56 172.35 271.59 177.24 273.68 180.27 277.73 182.74 279.48 176.58 281.47 174.25 282.82 178.56 286.38 182.08 289.71 183.56 294.87 187.53 299.25 191.56 300.34 199.22 303.42 200.92 303.97 203.49"/>
   <polyline points="321.26 182.49 321.85 186.81 323.37 189.11 326.17 190.32 329.71 186.19 331.15 181.03 328.08 178.79 324.78 179.87 323.28 181.91 321.26 182.49"/>
   <polyline points="375.22 161.35 377.04 165.68 376.83 169.99 377.88 173.56 381.48 175.81 381.23 178.63 378.21 179.67 376.18 179.49 373.42 180.8 379.04 183.27 378.3 185.58 373.2 185.64 373.75 188.48 375.05 191.99 375.13 196.1 377.45 199.88 379.27 203.44 382.1 205.97 380.84 207.73 380.36 209.54 379.39 213.43 376.37 215.77 371.5 212.79 371.22 209.96 368.36 207.47 368.34 203.89 370.83 201.27 370.56 197.48 365.93 196.27 363.65 196.31 362.1 193.78 362.55 187.88 359.18 181.56 355.84 179.31 354.75 175.28 353.9 169.66 349.78 163.57 348.7 159 345.37 157.79 341.83 155.8 339.75 154.56 338.49 155.88 340.31 157.88 337.29 160.22 340.08 160.93 343.19 163.2 346.53 166.47 350.62 168.7 346.56 170.55 345.33 173.14 341.74 172.42 337.42 170.21 334.01 164.62 331.43 162.63 325.58 159.68 321.21 157.45 318.14 153.15 321.64 151.06 328 149.93 327.22 147.12 324.66 146.39 323.92 147.93 319.55 148.03 320.3 145.19 317.5 143.99 315.69 141.45 310.56 138.2 302.85 132.96 301.32 133.79 299.87 135.59 296.56 136.67 294.48 135.69 290.66 135 285.6 135.36 283.06 136.92 277.74 137.77 272.9 137.08 269.57 135.86 269.05 133.32 263.93 133.16 261.93 135 256.6 135.35 251.76 136.46 251.8 139.24 249.27 140.8 243.93 141.43 241.93 143 242.71 145.54 240.43 146.88 234.08 147.74 233.61 150.04 233.4 152.89 231.36 154.16 227.85 157.82 225.32 160.41 222.07 163.04 218 163.86 219.01 162.32 221 159.23 220.45 157.43 217.18 157.5 215.37 154.96 213.79 152.41 216.3 149.59 219.05 147.24 221.34 146.94 223.38 143.07 222.79 138.75 225.84 137.4 230.11 135.3 230.33 130.46 228 128.41 225.71 127.68 237.56 123.43 247.52 120.66 257.19 118.78 269.3 117.4 280.07 117.13 292.68 117.96 308.34 120.63 323.64 125.24 334.07 129.74 344.84 135.43 353.94 141.37 362.48 147.78 369.98 154.83 375.01 160.14 375.22 161.35"/>
   <polyline points="345.64 176.96 343.36 178.02 344.37 180.28 346.74 183.82 347.52 186.36 348.59 190.17 352.2 193.18 354.71 193.39 353.69 191.13 350.57 188.37 350.31 186.8 353.39 188.07 356.74 189.78 359.79 190.76 359.77 188.2 359.88 187.94 359.98 187.69 360.05 187.4 360.06 187.14 360.07 186.6 360.01 186.08 359.9 185.58 359.81 185.2 359.73 184.98 359.7 184.86 357.66 183.64 351.27 180.95 348.45 179.69 345.64 176.96"/>
   <polyline points="383.99 171.36 383.76 174.74 384.83 178.55 383.81 180.62 382.06 180.67 383.6 183.2 386.71 187.19 387.01 192.58 384.22 191.87 382.43 192.16 382 198.28 382.33 203.62 381.59 206.19 381.88 210.81 380.38 213.4 379.44 216.71 380.99 221.3 383.61 227.37 383.41 231.74 383.27 240.69 384.39 248.81 386.5 255.43 389.88 262.79 394.26 267.58 399.39 268.77 402.37 264.08 404.39 261.01 407.16 259.76 407.83 251.52 407.91 243.88 407.58 236.04 406.6 226.82 404.53 216 401.95 206.76 399.04 198.56 395.42 190.4 391.7 183.16 387.18 175.9 383.99 171.36"/>
  </g>
 </g>
</svg>
