<?xml version="1.0" encoding="UTF-8" standalone="no"?>
<!DOCTYPE svg PUBLIC "-//W3C//DTD SVG 1.1//EN" "http://www.w3.org/Graphics/SVG/1.1/DTD/svg11.dtd">
<!-- Created with Vectornator (http://vectornator.io/) -->
<svg height="100%" stroke-miterlimit="10" style="fill-rule:nonzero;clip-rule:evenodd;stroke-linecap:round;stroke-linejoin:round;" version="1.1" viewBox="0 0 1190.7 841.995" width="100%" xml:space="preserve" xmlns="http://www.w3.org/2000/svg" xmlns:vectornator="http://vectornator.io" xmlns:xlink="http://www.w3.org/1999/xlink">
<defs/>
<g id="Layer-1" vectornator:layerName="Layer 1">
<g opacity="1" vectornator:layerName="Group 7">
<g opacity="1" vectornator:layerName="Group 6">
<g opacity="1" vectornator:layerName="Group 1">
<path d="M516.126 278.675C516.069 278.618 516.078 278.515 516.147 278.445L532.785 261.718C532.854 261.649 532.957 261.639 533.014 261.696L654.328 382.361C654.385 382.419 654.376 382.521 654.307 382.591L637.669 399.318C637.6 399.387 637.497 399.397 637.44 399.34L516.126 278.675Z" fill="#ffffff" fill-opacity="0" fill-rule="nonzero" opacity="1" stroke="#000000" stroke-linecap="butt" stroke-linejoin="round" stroke-width="1.94872" vectornator:layerName="Rectangle 1"/>
</g>
<g opacity="1" vectornator:layerName="Group 5">
<path d="M532.673 502.971C532.616 503.028 532.513 503.018 532.444 502.949L515.811 486.217C515.742 486.148 515.733 486.045 515.79 485.988L637.137 365.356C637.195 365.299 637.297 365.309 637.366 365.378L653.999 382.11C654.068 382.179 654.078 382.282 654.02 382.339L532.673 502.971Z" fill="#ffffff" fill-opacity="0" fill-rule="nonzero" opacity="1" stroke="#000000" stroke-linecap="butt" stroke-linejoin="round" stroke-width="1.94872" vectornator:layerName="Rectangle 1"/>
</g>
<path d="M614.621 365.631" fill="#ffffff" fill-opacity="0" fill-rule="nonzero" opacity="1" stroke="#000000" stroke-linecap="butt" stroke-linejoin="round" stroke-width="3.15444" vectornator:layerName="Curve 1"/>
</g>
<path d="M532.557 262.699L516.785 277.915" fill="none" opacity="1" stroke="#ffffff" stroke-linecap="butt" stroke-linejoin="round" stroke-width="3.15444" vectornator:layerName="Line 1"/>
<path d="M516.785 486.401L532.179 502" fill="none" opacity="1" stroke="#ffffff" stroke-linecap="butt" stroke-linejoin="round" stroke-width="3.15444" vectornator:layerName="Line 2"/>
<path d="M532.557 262.699L531.491 263.727M517.141 277.572L516.785 277.915" fill="none" opacity="1" stroke="#ffffff" stroke-linecap="butt" stroke-linejoin="round" stroke-width="3.15444" vectornator:layerName="Curve 1"/>
<path d="M532.557 262.699L531.491 263.727M517.141 277.572L516.785 277.915" fill="none" opacity="1" stroke="#ffffff" stroke-linecap="butt" stroke-linejoin="round" stroke-width="3.15444" vectornator:layerName="Curve 2"/>
</g>
<g opacity="1" vectornator:layerName="Group 8">
<g opacity="1" vectornator:layerName="Group 6">
<g opacity="1" vectornator:layerName="Group 1">
<path d="M446.82 278.675C446.762 278.618 446.772 278.515 446.841 278.445L463.478 261.718C463.548 261.649 463.65 261.639 463.708 261.696L585.021 382.361C585.079 382.419 585.069 382.521 585 382.591L568.363 399.318C568.294 399.387 568.191 399.397 568.133 399.34L446.82 278.675Z" fill="#ffffff" fill-opacity="0" fill-rule="nonzero" opacity="1" stroke="#000000" stroke-linecap="butt" stroke-linejoin="round" stroke-width="1.94872" vectornator:layerName="Rectangle 1"/>
</g>
<g opacity="1" vectornator:layerName="Group 5">
<path d="M463.367 502.971C463.309 503.028 463.207 503.018 463.138 502.949L446.505 486.217C446.436 486.148 446.426 486.045 446.484 485.988L567.831 365.356C567.888 365.299 567.991 365.309 568.06 365.378L584.693 382.11C584.762 382.179 584.771 382.282 584.714 382.339L463.367 502.971Z" fill="#ffffff" fill-opacity="0" fill-rule="nonzero" opacity="1" stroke="#000000" stroke-linecap="butt" stroke-linejoin="round" stroke-width="1.94872" vectornator:layerName="Rectangle 1"/>
</g>
<path d="M545.314 365.631" fill="#ffffff" fill-opacity="0" fill-rule="nonzero" opacity="1" stroke="#000000" stroke-linecap="butt" stroke-linejoin="round" stroke-width="3.15444" vectornator:layerName="Curve 1"/>
</g>
<path d="M463.251 262.699L447.479 277.915" fill="none" opacity="1" stroke="#ffffff" stroke-linecap="butt" stroke-linejoin="round" stroke-width="3.15444" vectornator:layerName="Line 1"/>
<path d="M447.479 486.401L462.873 502" fill="none" opacity="1" stroke="#ffffff" stroke-linecap="butt" stroke-linejoin="round" stroke-width="3.15444" vectornator:layerName="Line 2"/>
<path d="M463.251 262.699L462.185 263.727M447.835 277.572L447.479 277.915" fill="none" opacity="1" stroke="#ffffff" stroke-linecap="butt" stroke-linejoin="round" stroke-width="3.15444" vectornator:layerName="Curve 1"/>
<path d="M463.251 262.699L462.185 263.727M447.835 277.572L447.479 277.915" fill="none" opacity="1" stroke="#ffffff" stroke-linecap="butt" stroke-linejoin="round" stroke-width="3.15444" vectornator:layerName="Curve 2"/>
</g>
</g>
</svg>
